{
  "accessors": [
    {
      "bufferView": 2,
      "componentType": 5126,
      "count": 408,
      "max": [
        9.6800012588500977,
        9.9999971389770508,
        1.9999998807907104
      ],
      "min": [
        -9.6800003051757812,
        -10.000001907348633,
        -2.0000033378601074
      ],
      "type": "VEC3"
    },
    {
      "bufferView": 2,
      "byteOffset": 4896,
      "componentType": 5126,
      "count": 408,
      "max": [
        1,
        1,
        1
      ],
      "min": [
        -1,
        -1,
        -1
      ],
      "type": "VEC3"
    },
    {
      "bufferView": 1,
      "componentType": 5126,
      "count": 408,
      "max": [
        0.875,
        1
      ],
      "min": [
        0,
        0
      ],
      "type": "VEC2"
    },
    {
      "bufferView": 0,
      "componentType": 5125,
      "count": 1176,
      "max": [
        407
      ],
      "min": [
        0
      ],
      "type": "SCALAR"
    },
    {
      "bufferView": 3,
      "componentType": 5126,
      "count": 41,
      "max": [
        0.83333331346511841
      ],
      "min": [
        0
      ],
      "type": "SCALAR"
    },
    {
      "bufferView": 4,
      "componentType": 5126,
      "count": 41,
      "max": [
        8.315721475122962e-17,
        1,
        8.315721475122962e-17,
        1
      ],
      "min": [
        -8.6552877192543504e-17,
        -0.85264021158218384,
        -8.6552877192543504e-17,
        -0.48175367712974548
      ],
      "type": "VEC4"
    }
  ],
  "animations": [
    {
      "channels": [
        {
          "sampler": 0,
          "target": {
            "node": 6,
            "path": "rotation"
          }
        }
      ],
      "name": "CoinObj|Coin",
      "samplers": [
        {
          "input": 4,
          "interpolation": "LINEAR",
          "output": 5
        }
      ]
    }
  ],
  "asset": {
    "extras": {
      "author": "chor64 (https://sketchfab.com/chorizo6457)",
      "license": "CC-BY-4.0 (http://creativecommons.org/licenses/by/4.0/)",
      "source": "https://sketchfab.com/3d-models/coin-dfa5d2e83f9f4cb4a53fe6f109f3dbb8",
      "title": "Coin"
    },
    "generator": "Sketchfab-8.20.0",
    "version": "2.0"
  },
  "bufferViews": [
    {
      "buffer": 0,
      "byteLength": 4704,
      "byteOffset": 0,
      "name": "floatBufferViews",
      "target": 34963
    },
    {
      "buffer": 0,
      "byteLength": 3264,
      "byteOffset": 4704,
      "byteStride": 8,
      "name": "floatBufferViews",
      "target": 34962
    },
    {
      "buffer": 0,
      "byteLength": 9792,
      "byteOffset": 7968,
      "byteStride": 12,
      "name": "floatBufferViews",
      "target": 34962
    },
    {
      "buffer": 0,
      "byteLength": 164,
      "byteOffset": 17760,
      "name": "floatBufferViews"
    },
    {
      "buffer": 0,
      "byteLength": 656,
      "byteOffset": 17924,
      "byteStride": 16,
      "name": "floatBufferViews"
    }
  ],
  "buffers": [
    {
      "byteLength": 18580,
      "uri": "scene.bin"
    }
  ],
  "materials": [
    {
      "doubleSided": true,
      "emissiveFactor": [
        0,
        0,
        0
      ],
      "name": "Coin",
      "pbrMetallicRoughness": {
        "baseColorFactor": [
          0.80000000000000004,
          0.38704899999999998,
          0,
          1
        ],
        "metallicFactor": 0.5,
        "roughnessFactor": 0.16291920731707321
      }
    }
  ],
  "meshes": [
    {
      "name": "CoinObj_Coin_0",
      "primitives": [
        {
          "attributes": {
            "NORMAL": 1,
            "POSITION": 0,
            "TEXCOORD_0": 2
          },
          "indices": 3,
          "material": 0,
          "mode": 4
        }
      ]
    }
  ],
  "nodes": [
    {
      "children": [
        1
      ],
      "name": "RootNode (gltf orientation matrix)",
      "rotation": [
        -0.70710678118654746,
        -0,
        -0,
        0.70710678118654757
      ]
    },
    {
      "children": [
        2
      ],
      "matrix": [
        0.14059315621852875,
        0,
        0,
        0,
        0,
        0.14059315621852875,
        0,
        0,
        0,
        0,
        0.14059315621852875,
        0,
        0,
        0,
        0,
        1
      ],
      "name": "RootNode (model correction matrix)"
    },
    {
      "children": [
        3
      ],
      "matrix": [
        1,
        0,
        0,
        0,
        0,
        0,
        1,
        0,
        0,
        -1,
        0,
        0,
        0,
        0,
        0,
        1
      ],
      "name": "dac838890acf4045a602c11254a10146.fbx"
    },
    {
      "children": [
        4
      ],
      "name": ""
    },
    {
      "children": [
        5
      ],
      "name": "RootNode"
    },
    {
      "children": [
        6
      ],
      "name": "Coin"
    },
    {
      "children": [
        7
      ],
      "name": "CoinObj",
      "rotation": [
        0,
        -0.58778518438339233,
        0,
        0.80901706218719482
      ],
      "scale": [
        0.99999994039535522,
        1,
        0.99999994039535522
      ]
    },
    {
      "mesh": 0,
      "name": "CoinObj_Coin_0"
    }
  ],
  "scene": 0,
  "scenes": [
    {
      "name": "OSG_Scene",
      "nodes": [
        0
      ]
    }
  ]
}

